<svg data-v-fde0c5aa="" xmlns="http://www.w3.org/2000/svg" viewBox="0 0 300 300" class="font"><!----><defs data-v-fde0c5aa=""><linearGradient data-v-fde0c5aa="" gradientTransform="rotate(25)" id="f3b3eab3-cb68-4a95-8bbc-b6e5820f53fc" x1="0%" y1="0%" x2="100%" y2="0%"><stop data-v-fde0c5aa="" offset="0%" stop-color="#20484F" stop-opacity="1"></stop><stop data-v-fde0c5aa="" offset="100%" stop-color="#4E9BAB" stop-opacity="1"></stop></linearGradient></defs><rect data-v-fde0c5aa="" fill="url(#f3b3eab3-cb68-4a95-8bbc-b6e5820f53fc)" x="0" y="0" width="300px" height="300px" class="logo-background-square"></rect><defs data-v-fde0c5aa=""><!----></defs><g data-v-fde0c5aa="" id="76bd3069-63aa-4ede-a115-e48d5ab4c0cd" fill="#ffffff" transform="matrix(2.6669900072409423,0,0,2.6669900072409423,40.48005822037917,129.07746395275157)"><path d="M3.44 5.14L5.94 11.44L8.40 5.36L8.40 5.36Q8.61 4.84 8.69 4.55L8.69 4.55L8.69 4.55Q8.78 4.26 8.78 4.02L8.78 4.02L8.78 4.02Q8.78 3.64 8.55 3.49L8.55 3.49L8.55 3.49Q8.32 3.33 7.69 3.33L7.69 3.33L7.69 2.80L11.09 2.80L11.09 3.33L11.09 3.33Q10.77 3.37 10.54 3.44L10.54 3.44L10.54 3.44Q10.30 3.51 10.13 3.64L10.13 3.64L10.13 3.64Q9.95 3.77 9.82 3.97L9.82 3.97L9.82 3.97Q9.69 4.17 9.56 4.47L9.56 4.47L5.77 13.72L5.28 13.72L1.67 5.00L1.67 5.00Q1.48 4.58 1.31 4.27L1.31 4.27L1.31 4.27Q1.13 3.96 0.92 3.77L0.92 3.77L0.92 3.77Q0.71 3.57 0.45 3.47L0.45 3.47L0.45 3.47Q0.18 3.37-0.18 3.35L-0.18 3.35L-0.18 2.80L4.38 2.80L4.38 3.35L4.38 3.35Q3.99 3.35 3.75 3.38L3.75 3.38L3.75 3.38Q3.50 3.42 3.36 3.49L3.36 3.49L3.36 3.49Q3.22 3.57 3.16 3.68L3.16 3.68L3.16 3.68Q3.11 3.79 3.11 3.93L3.11 3.93L3.11 3.93Q3.11 4.13 3.18 4.39L3.18 4.39L3.18 4.39Q3.25 4.65 3.44 5.14L3.44 5.14ZM14.04 6.02L14.04 11.35L14.04 11.35Q14.04 11.90 14.09 12.23L14.09 12.23L14.09 12.23Q14.14 12.56 14.28 12.75L14.28 12.75L14.28 12.75Q14.42 12.94 14.67 13.01L14.67 13.01L14.67 13.01Q14.92 13.08 15.34 13.09L15.34 13.09L15.34 13.58L11.33 13.58L11.33 13.09L11.33 13.09Q11.75 13.08 12.01 13.00L12.01 13.00L12.01 13.00Q12.28 12.92 12.43 12.75L12.43 12.75L12.43 12.75Q12.57 12.57 12.62 12.26L12.62 12.26L12.62 12.26Q12.67 11.94 12.67 11.45L12.67 11.45L12.67 9.66L12.67 9.66Q12.67 8.85 12.65 8.32L12.65 8.32L12.65 8.32Q12.63 7.80 12.57 7.60L12.57 7.60L12.57 7.60Q12.50 7.28 12.25 7.16L12.25 7.16L12.25 7.16Q12.00 7.04 11.30 7.04L11.30 7.04L11.30 6.55L14.04 6.02ZM12.43 3.18L12.43 3.18L12.43 3.18Q12.43 2.81 12.68 2.56L12.68 2.56L12.68 2.56Q12.94 2.31 13.30 2.31L13.30 2.31L13.30 2.31Q13.66 2.31 13.92 2.56L13.92 2.56L13.92 2.56Q14.17 2.81 14.17 3.18L14.17 3.18L14.17 3.18Q14.17 3.54 13.92 3.79L13.92 3.79L13.92 3.79Q13.66 4.05 13.30 4.05L13.30 4.05L13.30 4.05Q12.94 4.05 12.68 3.79L12.68 3.79L12.68 3.79Q12.43 3.54 12.43 3.18ZM17.11 13.09L16.83 13.58L16.52 13.58L16.52 11.17L16.87 11.17L16.87 11.17Q17.42 13.15 18.86 13.15L18.86 13.15L18.86 13.15Q19.42 13.15 19.75 12.87L19.75 12.87L19.75 12.87Q20.08 12.60 20.08 12.04L20.08 12.04L20.08 12.04Q20.08 11.83 20.01 11.68L20.01 11.68L20.01 11.68Q19.95 11.54 19.78 11.38L19.78 11.38L19.78 11.38Q19.60 11.21 19.29 11.00L19.29 11.00L19.29 11.00Q18.97 10.79 18.45 10.47L18.45 10.47L18.45 10.47Q17.98 10.18 17.63 9.93L17.63 9.93L17.63 9.93Q17.28 9.67 17.04 9.41L17.04 9.41L17.04 9.41Q16.80 9.16 16.68 8.86L16.68 8.86L16.68 8.86Q16.56 8.57 16.56 8.18L16.56 8.18L16.56 8.18Q16.56 7.70 16.72 7.30L16.72 7.30L16.72 7.30Q16.88 6.90 17.16 6.62L17.16 6.62L17.16 6.62Q17.44 6.34 17.82 6.18L17.82 6.18L17.82 6.18Q18.20 6.02 18.65 6.02L18.65 6.02L18.65 6.02Q19.03 6.02 19.43 6.14L19.43 6.14L19.43 6.14Q19.84 6.26 20.15 6.45L20.15 6.45L20.43 6.16L20.69 6.16L20.69 8.18L20.33 8.18L20.33 8.18Q20.02 7.32 19.66 6.96L19.66 6.96L19.66 6.96Q19.29 6.59 18.76 6.59L18.76 6.59L18.76 6.59Q18.28 6.59 18.00 6.85L18.00 6.85L18.00 6.85Q17.71 7.10 17.71 7.55L17.71 7.55L17.71 7.55Q17.71 7.78 17.79 7.96L17.79 7.96L17.79 7.96Q17.86 8.13 18.03 8.30L18.03 8.30L18.03 8.30Q18.20 8.47 18.46 8.64L18.46 8.64L18.46 8.64Q18.72 8.82 19.08 9.04L19.08 9.04L19.08 9.04Q19.68 9.42 20.11 9.72L20.11 9.72L20.11 9.72Q20.54 10.01 20.80 10.30L20.80 10.30L20.80 10.30Q21.07 10.58 21.20 10.89L21.20 10.89L21.20 10.89Q21.32 11.20 21.32 11.59L21.32 11.59L21.32 11.59Q21.32 12.59 20.68 13.15L20.68 13.15L20.68 13.15Q20.03 13.72 18.98 13.72L18.98 13.72L18.98 13.72Q17.89 13.72 17.11 13.09L17.11 13.09ZM25.17 6.02L25.17 11.35L25.17 11.35Q25.17 11.90 25.22 12.23L25.22 12.23L25.22 12.23Q25.27 12.56 25.41 12.75L25.41 12.75L25.41 12.75Q25.55 12.94 25.80 13.01L25.80 13.01L25.80 13.01Q26.05 13.08 26.47 13.09L26.47 13.09L26.47 13.58L22.46 13.58L22.46 13.09L22.46 13.09Q22.88 13.08 23.14 13.00L23.14 13.00L23.14 13.00Q23.41 12.92 23.56 12.75L23.56 12.75L23.56 12.75Q23.70 12.57 23.75 12.26L23.75 12.26L23.75 12.26Q23.80 11.94 23.80 11.45L23.80 11.45L23.80 9.66L23.80 9.66Q23.80 8.85 23.78 8.32L23.78 8.32L23.78 8.32Q23.76 7.80 23.70 7.60L23.70 7.60L23.70 7.60Q23.63 7.28 23.38 7.16L23.38 7.16L23.38 7.16Q23.13 7.04 22.43 7.04L22.43 7.04L22.43 6.55L25.17 6.02ZM23.56 3.18L23.56 3.18L23.56 3.18Q23.56 2.81 23.81 2.56L23.81 2.56L23.81 2.56Q24.07 2.31 24.43 2.31L24.43 2.31L24.43 2.31Q24.79 2.31 25.05 2.56L25.05 2.56L25.05 2.56Q25.30 2.81 25.30 3.18L25.30 3.18L25.30 3.18Q25.30 3.54 25.05 3.79L25.05 3.79L25.05 3.79Q24.79 4.05 24.43 4.05L24.43 4.05L24.43 4.05Q24.07 4.05 23.81 3.79L23.81 3.79L23.81 3.79Q23.56 3.54 23.56 3.18ZM31.30 6.02L31.30 6.02L31.30 6.02Q32.10 6.02 32.82 6.31L32.82 6.31L32.82 6.31Q33.53 6.59 34.07 7.10L34.07 7.10L34.07 7.10Q34.61 7.60 34.92 8.29L34.92 8.29L34.92 8.29Q35.24 8.99 35.24 9.81L35.24 9.81L35.24 9.81Q35.24 10.67 34.92 11.38L34.92 11.38L34.92 11.38Q34.61 12.10 34.07 12.61L34.07 12.61L34.07 12.61Q33.53 13.13 32.82 13.43L32.82 13.43L32.82 13.43Q32.10 13.72 31.30 13.72L31.30 13.72L31.30 13.72Q30.52 13.72 29.81 13.43L29.81 13.43L29.81 13.43Q29.11 13.15 28.57 12.63L28.57 12.63L28.57 12.63Q28.04 12.11 27.73 11.39L27.73 11.39L27.73 11.39Q27.43 10.67 27.43 9.81L27.43 9.81L27.43 9.81Q27.43 8.99 27.73 8.29L27.73 8.29L27.73 8.29Q28.04 7.59 28.57 7.08L28.57 7.08L28.57 7.08Q29.11 6.58 29.81 6.30L29.81 6.30L29.81 6.30Q30.52 6.02 31.30 6.02ZM31.30 6.69L31.30 6.69L31.30 6.69Q30.79 6.69 30.36 6.92L30.36 6.92L30.36 6.92Q29.93 7.14 29.63 7.55L29.63 7.55L29.63 7.55Q29.33 7.97 29.17 8.55L29.17 8.55L29.17 8.55Q29.01 9.13 29.01 9.83L29.01 9.83L29.01 9.83Q29.01 10.56 29.17 11.14L29.17 11.14L29.17 11.14Q29.33 11.73 29.63 12.14L29.63 12.14L29.63 12.14Q29.93 12.56 30.35 12.78L30.35 12.78L30.35 12.78Q30.77 13.01 31.30 13.01L31.30 13.01L31.30 13.01Q31.84 13.01 32.27 12.78L32.27 12.78L32.27 12.78Q32.70 12.56 33.01 12.14L33.01 12.14L33.01 12.14Q33.32 11.72 33.49 11.13L33.49 11.13L33.49 11.13Q33.66 10.54 33.66 9.83L33.66 9.83L33.66 9.83Q33.66 9.13 33.49 8.55L33.49 8.55L33.49 8.55Q33.32 7.98 33.01 7.57L33.01 7.57L33.01 7.57Q32.70 7.15 32.27 6.92L32.27 6.92L32.27 6.92Q31.84 6.69 31.30 6.69ZM38.93 9.51L38.93 11.38L38.93 11.38Q38.93 11.96 38.96 12.29L38.96 12.29L38.96 12.29Q38.99 12.61 39.11 12.79L39.11 12.79L39.11 12.79Q39.23 12.96 39.46 13.02L39.46 13.02L39.46 13.02Q39.69 13.08 40.10 13.10L40.10 13.10L40.10 13.58L36.43 13.58L36.43 13.10L36.43 13.10Q36.82 13.08 37.05 13.02L37.05 13.02L37.05 13.02Q37.28 12.96 37.41 12.80L37.41 12.80L37.41 12.80Q37.53 12.63 37.57 12.32L37.57 12.32L37.57 12.32Q37.60 12.01 37.60 11.48L37.60 11.48L37.60 9.62L37.60 9.62Q37.60 7.95 37.52 7.59L37.52 7.59L37.52 7.59Q37.48 7.41 37.42 7.29L37.42 7.29L37.42 7.29Q37.35 7.17 37.23 7.10L37.23 7.10L37.23 7.10Q37.10 7.04 36.90 7.02L36.90 7.02L36.90 7.02Q36.71 7 36.40 7L36.40 7L36.40 6.55L38.64 6.02L38.81 7.41L38.86 7.41L38.86 7.41Q39.40 6.75 40.11 6.38L40.11 6.38L40.11 6.38Q40.82 6.02 41.66 6.02L41.66 6.02L41.66 6.02Q42.31 6.02 42.84 6.23L42.84 6.23L42.84 6.23Q43.37 6.44 43.65 6.80L43.65 6.80L43.65 6.80Q43.89 7.13 43.99 7.64L43.99 7.64L43.99 7.64Q44.09 8.15 44.09 9.04L44.09 9.04L44.09 11.38L44.09 11.38Q44.09 11.96 44.12 12.29L44.12 12.29L44.12 12.29Q44.16 12.61 44.27 12.79L44.27 12.79L44.27 12.79Q44.38 12.96 44.61 13.02L44.61 13.02L44.61 13.02Q44.84 13.08 45.22 13.10L45.22 13.10L45.22 13.58L41.59 13.58L41.59 13.10L41.59 13.10Q41.99 13.09 42.22 13.03L42.22 13.03L42.22 13.03Q42.45 12.96 42.57 12.80L42.57 12.80L42.57 12.80Q42.69 12.63 42.72 12.31L42.72 12.31L42.72 12.31Q42.76 12.00 42.76 11.48L42.76 11.48L42.76 9.63L42.76 9.63Q42.76 8.83 42.67 8.29L42.67 8.29L42.67 8.29Q42.59 7.74 42.40 7.41L42.40 7.41L42.40 7.41Q42.21 7.07 41.90 6.92L41.90 6.92L41.90 6.92Q41.59 6.78 41.16 6.78L41.16 6.78L41.16 6.78Q40.53 6.78 40.01 7.10L40.01 7.10L40.01 7.10Q39.48 7.43 39.19 8.01L39.19 8.01L39.19 8.01Q39.12 8.15 39.07 8.27L39.07 8.27L39.07 8.27Q39.02 8.40 38.99 8.57L38.99 8.57L38.99 8.57Q38.96 8.74 38.95 8.95L38.95 8.95L38.95 8.95Q38.93 9.17 38.93 9.51L38.93 9.51ZM48.20 9.41L48.20 10.65L48.20 10.65Q48.20 11.19 48.36 11.63L48.36 11.63L48.36 11.63Q48.51 12.07 48.78 12.38L48.78 12.38L48.78 12.38Q49.06 12.70 49.44 12.88L49.44 12.88L49.44 12.88Q49.83 13.06 50.27 13.06L50.27 13.06L50.27 13.06Q50.76 13.06 51.16 12.84L51.16 12.84L51.16 12.84Q51.56 12.61 51.85 12.20L51.85 12.20L51.85 12.20Q52.14 11.79 52.30 11.21L52.30 11.21L52.30 11.21Q52.46 10.63 52.46 9.91L52.46 9.91L52.46 9.91Q52.46 9.20 52.29 8.60L52.29 8.60L52.29 8.60Q52.12 8.01 51.83 7.58L51.83 7.58L51.83 7.58Q51.53 7.15 51.12 6.92L51.12 6.92L51.12 6.92Q50.71 6.68 50.22 6.68L50.22 6.68L50.22 6.68Q49.64 6.68 49.20 6.95L49.20 6.95L49.20 6.95Q48.75 7.22 48.51 7.71L48.51 7.71L48.51 7.71Q48.20 8.33 48.20 9.41L48.20 9.41ZM48.17 1.96L48.17 7.15L48.23 7.15L48.23 7.15Q48.68 6.57 49.22 6.29L49.22 6.29L49.22 6.29Q49.76 6.02 50.47 6.02L50.47 6.02L50.47 6.02Q51.23 6.02 51.88 6.31L51.88 6.31L51.88 6.31Q52.53 6.61 53.01 7.13L53.01 7.13L53.01 7.13Q53.49 7.64 53.77 8.35L53.77 8.35L53.77 8.35Q54.04 9.06 54.04 9.87L54.04 9.87L54.04 9.87Q54.04 10.70 53.76 11.40L53.76 11.40L53.76 11.40Q53.48 12.11 53.00 12.63L53.00 12.63L53.00 12.63Q52.51 13.15 51.86 13.44L51.86 13.44L51.86 13.44Q51.20 13.73 50.43 13.73L50.43 13.73L50.43 13.73Q49.63 13.73 48.94 13.44L48.94 13.44L48.94 13.44Q48.24 13.15 47.80 12.64L47.80 12.64L47.14 13.58L46.83 13.58L46.83 5.12L46.83 5.12Q46.83 3.71 46.65 3.32L46.65 3.32L46.65 3.32Q46.61 3.22 46.55 3.16L46.55 3.16L46.55 3.16Q46.49 3.09 46.38 3.04L46.38 3.04L46.38 3.04Q46.27 3.00 46.07 2.95L46.07 2.95L46.07 2.95Q45.88 2.91 45.54 2.87L45.54 2.87L45.54 2.52L48.17 1.96ZM59.26 6.02L59.26 6.02L59.26 6.02Q60.06 6.02 60.77 6.31L60.77 6.31L60.77 6.31Q61.49 6.59 62.03 7.10L62.03 7.10L62.03 7.10Q62.57 7.60 62.88 8.29L62.88 8.29L62.88 8.29Q63.20 8.99 63.20 9.81L63.20 9.81L63.20 9.81Q63.20 10.67 62.88 11.38L62.88 11.38L62.88 11.38Q62.57 12.10 62.03 12.61L62.03 12.61L62.03 12.61Q61.49 13.13 60.77 13.43L60.77 13.43L60.77 13.43Q60.06 13.72 59.26 13.72L59.26 13.72L59.26 13.72Q58.48 13.72 57.77 13.43L57.77 13.43L57.77 13.43Q57.06 13.15 56.53 12.63L56.53 12.63L56.53 12.63Q56 12.11 55.69 11.39L55.69 11.39L55.69 11.39Q55.38 10.67 55.38 9.81L55.38 9.81L55.38 9.81Q55.38 8.99 55.69 8.29L55.69 8.29L55.69 8.29Q56 7.59 56.53 7.08L56.53 7.08L56.53 7.08Q57.06 6.58 57.77 6.30L57.77 6.30L57.77 6.30Q58.48 6.02 59.26 6.02ZM59.26 6.69L59.26 6.69L59.26 6.69Q58.74 6.69 58.32 6.92L58.32 6.92L58.32 6.92Q57.89 7.14 57.59 7.55L57.59 7.55L57.59 7.55Q57.29 7.97 57.13 8.55L57.13 8.55L57.13 8.55Q56.97 9.13 56.97 9.83L56.97 9.83L56.97 9.83Q56.97 10.56 57.13 11.14L57.13 11.14L57.13 11.14Q57.29 11.73 57.59 12.14L57.59 12.14L57.59 12.14Q57.89 12.56 58.31 12.78L58.31 12.78L58.31 12.78Q58.73 13.01 59.26 13.01L59.26 13.01L59.26 13.01Q59.79 13.01 60.23 12.78L60.23 12.78L60.23 12.78Q60.66 12.56 60.97 12.14L60.97 12.14L60.97 12.14Q61.28 11.72 61.45 11.13L61.45 11.13L61.45 11.13Q61.61 10.54 61.61 9.83L61.61 9.83L61.61 9.83Q61.61 9.13 61.45 8.55L61.45 8.55L61.45 8.55Q61.28 7.98 60.97 7.57L60.97 7.57L60.97 7.57Q60.66 7.15 60.23 6.92L60.23 6.92L60.23 6.92Q59.79 6.69 59.26 6.69ZM65.27 7.04L64.43 7.04L64.43 6.52L64.43 6.52Q65.17 6.09 65.59 5.66L65.59 5.66L65.59 5.66Q66.01 5.22 66.23 4.62L66.23 4.62L66.64 4.62L66.64 6.38L68.52 6.38L68.52 7.04L66.64 7.04L66.64 11.30L66.64 11.30Q66.64 11.79 66.69 12.12L66.69 12.12L66.69 12.12Q66.74 12.46 66.85 12.66L66.85 12.66L66.85 12.66Q66.96 12.87 67.14 12.95L67.14 12.95L67.14 12.95Q67.33 13.03 67.61 13.03L67.61 13.03L67.61 13.03Q67.96 13.03 68.20 12.89L68.20 12.89L68.20 12.89Q68.45 12.74 68.68 12.39L68.68 12.39L69.03 12.66L69.03 12.66Q68.84 13.17 68.36 13.45L68.36 13.45L68.36 13.45Q67.87 13.72 67.16 13.72L67.16 13.72L67.16 13.72Q66.23 13.72 65.75 13.28L65.75 13.28L65.75 13.28Q65.27 12.84 65.27 12.01L65.27 12.01L65.27 7.04ZM72.35 6.02L72.35 11.35L72.35 11.35Q72.35 11.90 72.40 12.23L72.40 12.23L72.40 12.23Q72.45 12.56 72.59 12.75L72.59 12.75L72.59 12.75Q72.73 12.94 72.98 13.01L72.98 13.01L72.98 13.01Q73.23 13.08 73.65 13.09L73.65 13.09L73.65 13.58L69.64 13.58L69.64 13.09L69.64 13.09Q70.06 13.08 70.32 13.00L70.32 13.00L70.32 13.00Q70.59 12.92 70.73 12.75L70.73 12.75L70.73 12.75Q70.88 12.57 70.93 12.26L70.93 12.26L70.93 12.26Q70.98 11.94 70.98 11.45L70.98 11.45L70.98 9.66L70.98 9.66Q70.98 8.85 70.96 8.32L70.96 8.32L70.96 8.32Q70.94 7.80 70.88 7.60L70.88 7.60L70.88 7.60Q70.81 7.28 70.56 7.16L70.56 7.16L70.56 7.16Q70.31 7.04 69.61 7.04L69.61 7.04L69.61 6.55L72.35 6.02ZM70.74 3.18L70.74 3.18L70.74 3.18Q70.74 2.81 70.99 2.56L70.99 2.56L70.99 2.56Q71.25 2.31 71.61 2.31L71.61 2.31L71.61 2.31Q71.97 2.31 72.23 2.56L72.23 2.56L72.23 2.56Q72.48 2.81 72.48 3.18L72.48 3.18L72.48 3.18Q72.48 3.54 72.23 3.79L72.23 3.79L72.23 3.79Q71.97 4.05 71.61 4.05L71.61 4.05L71.61 4.05Q71.25 4.05 70.99 3.79L70.99 3.79L70.99 3.79Q70.74 3.54 70.74 3.18ZM78.47 9.04L79.42 7.81L79.42 7.81Q79.76 7.39 79.76 7.10L79.76 7.10L79.76 7.10Q79.76 6.65 78.93 6.65L78.93 6.65L78.93 6.16L82.00 6.16L82.00 6.65L82.00 6.65Q81.75 6.65 81.54 6.71L81.54 6.71L81.54 6.71Q81.34 6.76 81.14 6.89L81.14 6.89L81.14 6.89Q80.95 7.01 80.75 7.23L80.75 7.23L80.75 7.23Q80.54 7.45 80.29 7.77L80.29 7.77L78.85 9.60L80.71 12.05L80.71 12.05Q81.14 12.63 81.52 12.86L81.52 12.86L81.52 12.86Q81.89 13.09 82.31 13.09L82.31 13.09L82.31 13.58L78.58 13.58L78.58 13.09L78.58 13.09Q79.09 13.09 79.28 13.01L79.28 13.01L79.28 13.01Q79.48 12.94 79.48 12.71L79.48 12.71L79.48 12.71Q79.48 12.61 79.36 12.43L79.36 12.43L79.36 12.43Q79.24 12.24 78.96 11.87L78.96 11.87L77.98 10.61L76.79 12.12L76.79 12.12Q76.58 12.38 76.58 12.63L76.58 12.63L76.58 12.63Q76.58 12.82 76.75 12.96L76.75 12.96L76.75 12.96Q76.92 13.09 77.28 13.09L77.28 13.09L77.28 13.58L74.07 13.58L74.07 13.09L74.07 13.09Q74.40 13.09 74.65 13.03L74.65 13.03L74.65 13.03Q74.90 12.98 75.13 12.84L75.13 12.84L75.13 12.84Q75.36 12.70 75.61 12.45L75.61 12.45L75.61 12.45Q75.85 12.19 76.16 11.82L76.16 11.82L77.59 10.07L75.73 7.42L75.73 7.42Q75.40 6.97 75.14 6.81L75.14 6.81L75.14 6.81Q74.87 6.65 74.47 6.65L74.47 6.65L74.47 6.16L77.91 6.16L77.91 6.65L77.91 6.65Q77.53 6.65 77.36 6.74L77.36 6.74L77.36 6.74Q77.20 6.83 77.20 6.99L77.20 6.99L77.20 6.99Q77.20 7.20 77.46 7.57L77.46 7.57L78.47 9.04Z"></path></g><!----><!----></svg>